HIERARCHY
ROOT Hips
{
	OFFSET 0.00000 0.00000 0.00000
	CHANNELS 6 Xposition Yposition Zposition Yrotation Zrotation Xrotation 
	JOINT Lumbar
	{
		OFFSET 0 0 0
		CHANNELS 3 Zrotation Xrotation Yrotation
		JOINT Neck
		{
			OFFSET 0.00 0.2701 0.00
			CHANNELS 3 Zrotation Xrotation Yrotation
			End Site
			{
				OFFSET 0.00 0.1379 0.00
			}
		}
		JOINT RightShoulder
		{
			OFFSET 0.0119 0.2289 0.1181
			CHANNELS 3 Zrotation Xrotation Yrotation
			JOINT RightElbow
			{
				OFFSET 0.00 -0.1475 0.00
				CHANNELS 2 Zrotation Yrotation
				JOINT RightWrist
				{
					OFFSET 0.00 -0.1605 0.00
					CHANNELS 2 Zrotation Xrotation
					End Site
					{
						OFFSET 0.0040 -0.1068 0.0006
					}
				}
			}
		}
		JOINT LeftShoulder
		{
			OFFSET 0.0119 0.2289 -0.1181
			CHANNELS 3 Zrotation Xrotation Yrotation
			JOINT LeftElbow
			{
				OFFSET 0.00 -0.1475 0.00
				CHANNELS 2 Zrotation Yrotation
				JOINT LeftWrist
				{
					OFFSET 0.00 -0.1605 0.00
					CHANNELS 2 Zrotation Xrotation
					End Site
					{
						OFFSET 0.0040 -0.1068 -0.0006
					}
				}
			}
		}
	}
	JOINT RightHip
	{
		OFFSET 0.0316 -0.0424 0.0458
		CHANNELS 3 Zrotation Xrotation Yrotation
		JOINT RightKnee
		{
			OFFSET 0.00 -0.2438 0.00
			CHANNELS 1 Zrotation
			JOINT RightAnkle
			{
				OFFSET 0.00 -0.2449 0.00
				CHANNELS 3 Zrotation Xrotation Yrotation
				End Site
				{
					OFFSET 0.1237 -0.0542 0.0051
				}
			}
		}
	}
	JOINT LeftHip
	{
		OFFSET 0.0316 -0.0424 -0.0458
		CHANNELS 3 Zrotation Xrotation Yrotation
		JOINT LeftKnee
		{
			OFFSET 0.00 -0.2438 0.00
			CHANNELS 1 Zrotation
			JOINT LeftAnkle
			{
				OFFSET 0.00 -0.2449 0.00
				CHANNELS 3 Zrotation Xrotation Yrotation
				End Site
				{
					OFFSET 0.1237 -0.0542 -0.0051
				}
			}
		}
	}
}
MOTION
Frames: 19
Frame Time: 0.02
0.27017 -0.17295 0.09611 536.98354 -22.20119 -1.39572 15.39798 3.50925 -14.2957 -11.74729 9.33754 -2.11994 -6.55969 -14.23953 34.15992 101.93837 81.65895 -12.96339 -1.88472 60.07625 30.32093 -3.60833 55.87441 -65.33392 -15.51324 -1.75179 93.16893 -8.60979 -12.60559 -81.10704 -8.3865 -2.65991 -3.61222 95.88613 5.71248 5.77807 -80.84133 -10.09998 2.79492 3.76727
0.27007 -0.17284 0.09572 537.07 -22.12217 -1.20675 15.19999 3.55844 -14.22288 -11.71872 8.35591 -2.11994 -6.70222 -14.17194 33.75926 101.89456 81.69272 -12.13355 -2.16119 61.08001 29.95704 -4.86839 59.75032 -67.89816 -15.76018 -0.72251 93.03919 -8.71249 -12.53803 -81.09326 -8.34177 -2.63778 -3.6 95.64844 5.72171 6.0012 -80.70631 -10.07696 2.78317 3.76112
0.27004 -0.17277 0.09524 537.1786 -21.94632 -0.99287 14.95412 3.60116 -14.12094 -11.69641 7.06301 -2.11994 -6.86674 -14.09566 33.20856 101.80418 81.73148 -10.87725 -2.4461 62.50026 29.71466 -6.61025 63.83982 -72.0471 -15.59627 0.27432 92.78729 -8.79292 -12.44372 -81.04844 -8.28478 -2.61679 -3.58818 95.27988 5.75495 6.27463 -80.53383 -10.04436 2.76586 3.75165
0.26999 -0.17268 0.0948 537.27602 -21.816 -0.79139 14.73304 3.64648 -14.03152 -11.67546 5.91022 -2.11994 -7.02485 -14.03232 32.73635 101.74087 81.76865 -9.84683 -2.74555 63.71655 29.44886 -8.19852 67.8047 -75.4161 -15.64587 1.28165 92.59271 -8.88191 -12.36221 -81.01729 -8.23384 -2.59546 -3.57623 94.97472 5.77429 6.51875 -80.38007 -10.01744 2.75156 3.74398
0.26992 -0.1726 0.09435 537.37895 -21.67832 -0.58454 14.50014 3.69403 -13.94008 -11.63756 4.76112 -2.11994 -7.17538 -13.92991 32.21027 101.65577 81.80314 -8.67321 -2.97145 64.98952 29.04505 -9.51164 71.94841 -79.06998 -15.62413 2.3273 92.38845 -8.97906 -12.27926 -80.98735 -8.18032 -2.57308 -3.56388 94.65122 5.80441 6.78883 -80.2183 -9.98493 2.73505 3.73505
0.26989 -0.17251 0.09391 537.47527 -21.53317 -0.38371 14.27995 3.73506 -13.84816 -11.63578 3.5332 -2.11994 -7.34367 -13.90805 31.76564 101.60425 81.84456 -7.69845 -3.34972 66.24067 28.95826 -11.50934 75.74326 -82.44695 -15.60688 3.27958 92.17621 -9.05299 -12.19236 -80.94797 -8.12947 -2.55329 -3.55253 94.33567 5.81886 7.01738 -80.06492 -9.96173 2.7219 3.72797
0.26994 -0.17238 0.0935 537.54869 -21.39323 -0.20027 14.10902 3.75989 -13.75825 -11.73691 2.13969 -2.11994 -7.55936 -14.10011 31.57176 101.65071 81.90094 -7.39203 -4.16226 67.3887 29.72539 -15.30494 78.5569 -85.28686 -16.09832 3.95475 91.97118 -9.07229 -12.10242 -80.8876 -8.08928 -2.54016 -3.54373 94.07257 5.77937 7.11763 -79.94023 -9.96748 2.71931 3.72669
0.27002 -0.17224 0.0931 537.61434 -21.24904 -0.02482 13.9522 3.77816 -13.67021 -11.87337 0.68265 -2.11994 -7.79003 -14.37515 31.4684 101.73287 81.96461 -7.29954 -5.12429 68.49135 30.80566 -19.763 80.99494 -87.70311 -16.54744 4.53712 91.76289 -9.06805 -12.00905 -80.81929 -8.05228 -2.52968 -3.536 93.82269 5.72434 7.17467 -79.82602 -9.98279 2.72034 3.72741
0.2701 -0.17212 0.0927 537.68305 -21.10531 0.15074 13.78689 3.79924 -13.58449 -11.99039 -0.73026 -2.11994 -8.01095 -14.61969 31.3321 101.80258 82.02679 -7.0999 -6.0077 69.57709 31.73884 -23.90834 83.57693 -89.88569 -16.73787 5.17888 91.55661 -9.07176 -11.91614 -80.75641 -8.01365 -2.51812 -3.52788 93.56778 5.67978 7.25266 -79.70946 -9.99316 2.71981 3.72731
0.27015 -0.17195 0.09228 537.75493 -20.96369 0.34212 13.62773 3.82107 -13.48436 -12.12148 -2.22084 -2.11994 -8.24695 -14.83508 31.15581 101.85611 82.08139 -6.92478 -6.93782 70.83388 32.69972 -28.14201 86.28989 -93.83436 -18.03059 5.75466 91.34317 -9.08632 -11.82675 -80.68495 -7.97515 -2.50601 -3.5193 93.30339 5.62172 7.32725 -79.5814 -10.00567 2.71875 3.72677
0.27025 -0.17188 0.09191 537.81755 -20.8188 0.49825 13.46092 3.83959 -13.41499 -12.23212 -3.55769 -2.11994 -8.45256 -15.129 31.08625 101.9508 82.15354 -6.75794 -7.80443 71.72042 33.67151 -32.31473 88.62589 -94.09393 -17.09398 6.43687 91.14629 -9.07297 -11.72982 -80.62965 -7.93753 -2.49573 -3.51197 93.06452 5.58768 7.39753 -79.48028 -10.01616 2.71969 3.72763
0.27045 -0.17209 0.09171 537.86105 -20.65894 0.55916 13.25982 3.85278 -13.4311 -12.27266 -4.47811 -2.11994 -8.58977 -15.6364 31.29051 102.1643 82.27522 -6.53904 -8.47169 71.57364 34.63233 -36.39922 90.11505 -83.29339 -9.38749 7.51538 90.98944 -8.98876 -11.61096 -80.62309 -7.89959 -2.48917 -3.50742 92.88566 5.62452 7.47029 -79.45094 -10.01832 2.72555 3.73216
0.27068 -0.1724 0.09157 537.8947 -20.49773 0.58463 13.05264 3.86251 -13.47797 -12.29222 -5.23549 -2.11994 -8.69256 -16.21666 31.59929 102.41564 82.41631 -6.32766 -9.06681 71.05693 35.58614 -40.355 91.22013 -68.95549 0.45191 8.69009 90.85112 -8.87751 -11.48529 -80.63287 -7.86283 -2.48447 -3.50414 92.734 5.68575 7.53924 -79.44856 -10.01821 2.73326 3.738
0.27089 -0.17266 0.0914 537.92959 -20.34223 0.62618 12.85483 3.87242 -13.51041 -12.32472 -6.05068 -2.11994 -8.79784 -16.75271 31.86054 102.64075 82.54335 -6.12964 -9.68747 70.72317 36.51919 -44.20444 92.42937 -56.88739 8.89138 9.76768 90.70932 -8.7782 -11.36392 -80.63383 -7.82692 -2.47937 -3.50056 92.57536 5.73532 7.6072 -79.43405 -10.01945 2.73994 3.74305
0.27111 -0.17295 0.09122 537.97725 -20.16502 0.6679 12.62945 3.88793 -13.54526 -12.34436 -6.93773 -2.11994 -8.95748 -17.33922 32.12624 102.90513 82.68221 -5.86728 -10.34661 70.32932 37.56409 -48.76025 93.91187 -42.06656 19.11187 11.06463 90.54683 -8.6787 -11.23664 -80.64019 -7.78537 -2.47255 -3.49591 92.39459 5.78712 7.68518 -79.41935 -10.01973 2.74754 3.74898
0.27133 -0.17319 0.09107 537.99686 -20.03273 0.70055 12.46006 3.89107 -13.5818 -12.38498 -7.63463 -2.11994 -8.99771 -17.83596 32.40477 103.09636 82.81414 -5.73884 -10.90318 69.96847 38.37059 -51.82182 94.7526 -32.07322 26.1772 11.93229 90.43146 -8.57454 -11.12098 -80.63952 -7.75566 -2.46963 -3.49371 92.26597 5.83984 7.74195 -79.41133 -10.02129 2.75364 3.75338
0.27152 -0.17329 0.09101 537.93454 -20.02539 0.72006 12.445 3.86074 -13.62069 -12.49136 -7.85286 -2.11994 -8.69712 -18.07436 32.70653 103.07556 82.80454 -5.97006 -11.22247 69.83251 38.51618 -50.64224 93.79528 -36.90956 23.57316 11.56106 90.44594 -8.45479 -11.03124 -80.61374 -7.75962 -2.47778 -3.4985 92.27704 5.89289 7.74124 -79.41524 -10.0273 2.75511 3.75314
0.2717 -0.17334 0.09099 537.84555 -20.06322 0.7311 12.4867 3.81821 -13.65936 -12.61872 -7.88376 -2.11994 -8.2807 -18.21818 33.01487 102.97999 82.80585 -6.3358 -11.43535 69.73621 38.42155 -47.98616 92.22768 -46.62352 17.7899 10.76072 90.50659 -8.33299 -10.95472 -80.58071 -7.77523 -2.48963 -3.50561 92.3393 5.94544 7.71952 -79.42497 -10.03458 2.75501 3.75133
0.27187 -0.1734 0.09095 537.77348 -20.07997 0.74389 12.50353 3.78134 -13.69458 -12.73471 -7.9958 -2.11994 -7.93057 -18.39996 33.31073 102.91879 82.88356 -6.64498 -11.67719 69.59157 38.43787 -46.10024 91.02241 -53.67337 13.76155 10.17671 90.54321 -8.21854 -10.87753 -80.55214 -7.78463 -2.49925 -3.51129 92.37638 5.9958 7.70756 -79.43184 -10.04094 2.75565 3.75028
